# xmcd
# 
# Track frame offsets:
#     150
#     21978
#     40223
#     59603
#     80010
#     102693
#     120518
#     144795
#     159008
#     185705
# 
# Disc length: 2865
# 
# Revision: 5
# Processed by: cddbd v1.5.2PL0 Copyright (c) Steve Scherf et al.
# Submitted via: BonkEnc v1.0
# 
DISCID=840b2f0a
DTITLE=Elomar, Geraldo Azevedo, Vital Farias, Xangai - Cantoria 2
DYEAR=1988
DGENRE=Folk
TTITLE0=Abertura
TTITLE1=Era casa era jardim
TTITLE2=Sabor colorido - Moça bonita
TTITLE3=Na quadrada das águas perdidas
TTITLE4=Cantilena de lua cheia
TTITLE5=Arrumação
TTITLE6=Suite correnteza
TTITLE7=Estampas Eucalol
TTITLE8=Saga de Severinin
TTITLE9=Cantiga de amigo
EXTD=
EXTT0=Desafio do Auto da Catingeira\nRepente\nNovena
EXTT1=
EXTT2=
EXTT3=
EXTT4=
EXTT5=
EXTT6=Barcarola de S o Francisco\nTalism \nCaravana
EXTT7=
EXTT8=
EXTT9=
PLAYORDER=
